<svg xmlns="http://www.w3.org/2000/svg" width="572" height="558.016" viewBox="0 0 572 558.016"><g id="Grupo_14923" data-name="Grupo 14923" transform="translate(-6084 -6392.492)"><path id="Trazado_35624" data-name="Trazado 35624" d="M0,0H572V558.016H0Z" transform="translate(6084 6392.492)" fill="#fff"></path><g id="Trazado_36306" data-name="Trazado 36306" transform="translate(6171.629 6466.396)" fill="#fff"><path d="M 400.8266296386719 380.2512817382812 L 16.9999828338623 380.2512817382812 C 12.59266757965088 380.2512817382812 8.449141502380371 378.5349426269531 5.332720756530762 375.4185485839844 C 2.216299533843994 372.3021240234375 0.4999837577342987 368.1585998535156 0.4999837577342987 363.7512817382812 L 0.4999837577342987 17.00000953674316 C 0.4999837577342987 12.59269332885742 2.216299533843994 8.449167251586914 5.332720756530762 5.332746028900146 C 8.449141502380371 2.216325044631958 12.59266757965088 0.500009298324585 16.9999828338623 0.500009298324585 L 400.8266296386719 0.500009298324585 C 405.2339172363281 0.500009298324585 409.3774719238281 2.216325044631958 412.4938659667969 5.332746028900146 C 415.6102905273438 8.449167251586914 417.3266296386719 12.59269332885742 417.3266296386719 17.00000953674316 L 417.3266296386719 363.7512817382812 C 417.3266296386719 368.1585998535156 415.6102905273438 372.3021240234375 412.4938659667969 375.4185485839844 C 409.3774719238281 378.5349426269531 405.2339172363281 380.2512817382812 400.8266296386719 380.2512817382812 Z" stroke="none"></path><path d="M 16.99996948242188 1 C 12.72625732421875 1 8.708251953125 2.664276123046875 5.686309814453125 5.686279296875 C 2.664306640625 8.708282470703125 0.999969482421875 12.72622680664062 0.999969482421875 17 L 0.999969482421875 363.7512817382812 C 0.999969482421875 368.0250244140625 2.664306640625 372.04296875 5.686309814453125 375.06494140625 C 8.70831298828125 378.0869445800781 12.72625732421875 379.7512817382812 16.99996948242188 379.7512817382812 L 400.8266296386719 379.7512817382812 C 405.100341796875 379.7512817382812 409.1182861328125 378.0869445800781 412.1402893066406 375.06494140625 C 415.1622924804688 372.04296875 416.8266296386719 368.0250244140625 416.8266296386719 363.7512817382812 L 416.8266296386719 17 C 416.8266296386719 12.72622680664062 415.1622924804688 8.708282470703125 412.1402893066406 5.686279296875 C 409.1183471679688 2.664276123046875 405.100341796875 1 400.8266296386719 1 L 16.99996948242188 1 M 16.99996948242188 0 L 400.8266296386719 0 C 410.2154541015625 0 417.8266296386719 7.611114501953125 417.8266296386719 17 L 417.8266296386719 363.7512817382812 C 417.8266296386719 373.1401062011719 410.2154541015625 380.7512817382812 400.8266296386719 380.7512817382812 L 16.99996948242188 380.7512817382812 C 7.61114501953125 380.7512817382812 -3.0517578125e-05 373.1401062011719 -3.0517578125e-05 363.7512817382812 L -3.0517578125e-05 17 C -3.0517578125e-05 7.611114501953125 7.61114501953125 0 16.99996948242188 0 Z" stroke="none" fill="#cfecf4"></path></g><path id="Trazado_35625" data-name="Trazado 35625" d="M2.786,0h412.3c1.539,0,2.786,1.706,2.786,3.81V22.861H0V3.81C0,1.706,1.247,0,2.786,0Z" transform="translate(6171.629 6465.498)" fill="#122950"></path><path id="Trazado_36307" data-name="Trazado 36307" d="M0,0H419.751" transform="translate(6171.629 6518.205)" fill="none" stroke="#e8f8fc" stroke-width="1"></path><path id="Trazado_36308" data-name="Trazado 36308" d="M0,0V37.8" transform="translate(6190.098 6533.645)" fill="none" stroke="#e8f8fc" stroke-width="1"></path><path id="Trazado_36309" data-name="Trazado 36309" d="M0,0V37.8" transform="translate(6255.85 6533.645)" fill="none" stroke="#e8f8fc" stroke-width="1"></path><path id="Trazado_36310" data-name="Trazado 36310" d="M0,0V37.8" transform="translate(6348.5 6533.645)" fill="none" stroke="#e8f8fc" stroke-width="1"></path><g id="Trazado_35626" data-name="Trazado 35626" transform="translate(6182.898 6494.604)" fill="#fff"><path d="M 243.9399108886719 15.9522008895874 L 9.371968269348145 15.9522008895874 C 4.479937076568604 15.9522008895874 0.4999997019767761 13.03632640838623 0.4999997019767761 9.452200889587402 L 0.4999997019767761 7.000013828277588 C 0.4999997019767761 3.415888786315918 4.479937076568604 0.5000138282775879 9.371968269348145 0.5000138282775879 L 243.9399108886719 0.5000138282775879 C 248.8319396972656 0.5000138282775879 252.8118743896484 3.415888786315918 252.8118743896484 7.000013828277588 L 252.8118743896484 9.452200889587402 C 252.8118743896484 13.03632640838623 248.8319396972656 15.9522008895874 243.9399108886719 15.9522008895874 Z" stroke="none"></path><path d="M 9.371963500976562 1.000007629394531 C 7.082870483398438 1.000007629394531 4.941864013671875 1.657541275024414 3.343399047851562 2.851441383361816 C 1.832229614257812 3.980140686035156 1 5.453474044799805 1 7.000007629394531 L 1 9.452207565307617 C 1 10.99874114990234 1.832229614257812 12.47207450866699 3.343399047851562 13.60077476501465 C 4.941864013671875 14.79467391967773 7.082870483398438 15.45220756530762 9.371963500976562 15.45220756530762 L 243.9399108886719 15.45220756530762 C 246.22900390625 15.45220756530762 248.3700103759766 14.79467391967773 249.9684753417969 13.60077476501465 C 251.4796447753906 12.47207450866699 252.3118743896484 10.99874114990234 252.3118743896484 9.452207565307617 L 252.3118743896484 7.000007629394531 C 252.3118743896484 5.453474044799805 251.4796447753906 3.980140686035156 249.9684753417969 2.851441383361816 C 248.3700103759766 1.657541275024414 246.22900390625 1.000007629394531 243.9399108886719 1.000007629394531 L 9.371963500976562 1.000007629394531 M 9.371963500976562 7.62939453125e-06 L 243.9399108886719 7.62939453125e-06 C 249.1159057617188 7.62939453125e-06 253.3118743896484 3.134007453918457 253.3118743896484 7.000007629394531 L 253.3118743896484 9.452207565307617 C 253.3118743896484 13.31820774078369 249.1159057617188 16.45220756530762 243.9399108886719 16.45220756530762 L 9.371963500976562 16.45220756530762 C 4.195968627929688 16.45220756530762 0 13.31820774078369 0 9.452207565307617 L 0 7.000007629394531 C 0 3.134007453918457 4.195968627929688 7.62939453125e-06 9.371963500976562 7.62939453125e-06 Z" stroke="none" fill="#cfecf4"></path></g><g id="Grupo_13560" data-name="Grupo 13560" transform="translate(6188.773 6498.131)"><g id="Elipse_210" data-name="Elipse 210" transform="translate(0 -0.001)" fill="#fff" stroke="#cfecf4" stroke-width="1"><ellipse cx="4.113" cy="4.113" rx="4.113" ry="4.113" stroke="none"></ellipse><ellipse cx="4.113" cy="4.113" rx="3.613" ry="3.613" fill="none"></ellipse></g><path id="Trazado_1382" data-name="Trazado 1382" d="M-.493-.559,1.4,1.421" transform="translate(7.488 7.225)" fill="none" stroke="#cfecf4" stroke-linecap="round" stroke-width="1"></path></g><path id="Trazado_36011" data-name="Trazado 36011" d="M.609-5.738h.777V-.684H4.293V0H.609Z" transform="translate(6217.906 6595.705)" fill="#7daec7"></path><path id="Trazado_36012" data-name="Trazado 36012" d="M.59-5.738H1.7L3.352-.887,4.988-5.738h1.1V0H5.352V-3.387q0-.176.008-.582t.008-.871L3.73,0h-.77L1.313-4.84v.176q0,.211.01.643t.01.635V0H.59Z" transform="translate(6280.85 6594.705)" fill="#7daec7"></path><path id="Trazado_36013" data-name="Trazado 36013" d="M.59-5.738H1.7L3.352-.887,4.988-5.738h1.1V0H5.352V-3.387q0-.176.008-.582t.008-.871L3.73,0h-.77L1.313-4.84v.176q0,.211.01.643t.01.635V0H.59Z" transform="translate(6345 6594.705)" fill="#7daec7"></path><path id="Trazado_36014" data-name="Trazado 36014" d="M1.063-5.738,2.711-.852,4.34-5.738h.871L3.117,0H2.293L.2-5.738Z" transform="translate(6411.871 6594.705)" fill="#7daec7"></path><path id="Trazado_36015" data-name="Trazado 36015" d="M1.117-1.852a1.568,1.568,0,0,0,.23.793,1.528,1.528,0,0,0,1.363.57,2.413,2.413,0,0,0,.8-.125.885.885,0,0,0,.7-.867.749.749,0,0,0-.293-.668,2.958,2.958,0,0,0-.93-.34L2.2-2.664a3.52,3.52,0,0,1-1.078-.379A1.2,1.2,0,0,1,.578-4.117a1.654,1.654,0,0,1,.535-1.27,2.147,2.147,0,0,1,1.516-.5,2.632,2.632,0,0,1,1.533.436,1.572,1.572,0,0,1,.631,1.393h-.73a1.438,1.438,0,0,0-.25-.707,1.452,1.452,0,0,0-1.207-.449,1.4,1.4,0,0,0-.988.289.9.9,0,0,0-.3.672.656.656,0,0,0,.352.617,5.159,5.159,0,0,0,1.043.313l.8.184a2.466,2.466,0,0,1,.9.363,1.36,1.36,0,0,1,.547,1.168A1.458,1.458,0,0,1,4.268-.242a3.105,3.105,0,0,1-1.611.41A2.41,2.41,0,0,1,.98-.379,1.845,1.845,0,0,1,.387-1.852Z" transform="translate(6477.41 6594.705)" fill="#7daec7"></path><path id="Trazado_36016" data-name="Trazado 36016" d="M2.109-.5A1.611,1.611,0,0,0,2.6-.56,1.07,1.07,0,0,0,3.152-1,1.8,1.8,0,0,0,3.4-1.667a2.548,2.548,0,0,0,.044-.451A2.1,2.1,0,0,0,3.127-3.36,1.174,1.174,0,0,0,2.1-3.8H1.069V-.5ZM.483-4.3H2.227a1.643,1.643,0,0,1,1.377.63A2.322,2.322,0,0,1,4.04-2.218,2.9,2.9,0,0,1,3.782-.979,1.591,1.591,0,0,1,2.221,0H.483Z" transform="translate(6539.879 6595.705)" fill="#e5c9f7"></path><path id="Trazado_36311" data-name="Trazado 36311" d="M4,0H54.79a4,4,0,0,1,4,4V35.443a4,4,0,0,1-4,4H4a4,4,0,0,1-4-4V4A4,4,0,0,1,4,0Z" transform="translate(6190.098 6607.119)" fill="#f5f9fc"></path><path id="Trazado_36312" data-name="Trazado 36312" d="M4,0H54.79a4,4,0,0,1,4,4V35.443a4,4,0,0,1-4,4H4a4,4,0,0,1-4-4V4A4,4,0,0,1,4,0Z" transform="translate(6190.098 6651.779)" fill="#f5f9fc"></path><path id="Trazado_36313" data-name="Trazado 36313" d="M4,0H54.79a4,4,0,0,1,4,4V35.443a4,4,0,0,1-4,4H4a4,4,0,0,1-4-4V4A4,4,0,0,1,4,0Z" transform="translate(6190.098 6696.439)" fill="#f5f9fc"></path><path id="Trazado_36314" data-name="Trazado 36314" d="M4,0H54.79a4,4,0,0,1,4,4V35.443a4,4,0,0,1-4,4H4a4,4,0,0,1-4-4V4A4,4,0,0,1,4,0Z" transform="translate(6190.098 6741.102)" fill="#f5f9fc"></path><path id="Trazado_36315" data-name="Trazado 36315" d="M4,0H54.79a4,4,0,0,1,4,4V35.443a4,4,0,0,1-4,4H4a4,4,0,0,1-4-4V4A4,4,0,0,1,4,0Z" transform="translate(6190.098 6785.762)" fill="#f5f9fc"></path><path id="Trazado_36316" data-name="Trazado 36316" d="M4,0H54.79a4,4,0,0,1,4,4V35.443a4,4,0,0,1-4,4H4a4,4,0,0,1-4-4V4A4,4,0,0,1,4,0Z" transform="translate(6254.223 6607.119)" fill="#f5f9fc"></path><path id="Trazado_36317" data-name="Trazado 36317" d="M4,0H54.79a4,4,0,0,1,4,4V35.443a4,4,0,0,1-4,4H4a4,4,0,0,1-4-4V4A4,4,0,0,1,4,0Z" transform="translate(6254.223 6651.779)" fill="#f5f9fc"></path><path id="Trazado_36318" data-name="Trazado 36318" d="M4,0H54.79a4,4,0,0,1,4,4V35.443a4,4,0,0,1-4,4H4a4,4,0,0,1-4-4V4A4,4,0,0,1,4,0Z" transform="translate(6254.223 6696.439)" fill="#f5f9fc"></path><path id="Trazado_36319" data-name="Trazado 36319" d="M4,0H54.79a4,4,0,0,1,4,4V35.443a4,4,0,0,1-4,4H4a4,4,0,0,1-4-4V4A4,4,0,0,1,4,0Z" transform="translate(6254.223 6741.102)" fill="#f5f9fc"></path><path id="Trazado_36320" data-name="Trazado 36320" d="M4,0H54.79a4,4,0,0,1,4,4V35.443a4,4,0,0,1-4,4H4a4,4,0,0,1-4-4V4A4,4,0,0,1,4,0Z" transform="translate(6254.223 6785.762)" fill="#f5f9fc"></path><path id="Trazado_36321" data-name="Trazado 36321" d="M4,0H54.79a4,4,0,0,1,4,4V35.443a4,4,0,0,1-4,4H4a4,4,0,0,1-4-4V4A4,4,0,0,1,4,0Z" transform="translate(6318.35 6607.119)" fill="#f5f9fc"></path><path id="Trazado_36322" data-name="Trazado 36322" d="M4,0H54.79a4,4,0,0,1,4,4V35.443a4,4,0,0,1-4,4H4a4,4,0,0,1-4-4V4A4,4,0,0,1,4,0Z" transform="translate(6318.35 6651.779)" fill="#f5f9fc"></path><path id="Trazado_36323" data-name="Trazado 36323" d="M4,0H54.79a4,4,0,0,1,4,4V35.443a4,4,0,0,1-4,4H4a4,4,0,0,1-4-4V4A4,4,0,0,1,4,0Z" transform="translate(6318.35 6696.439)" fill="#f5f9fc"></path><path id="Trazado_36324" data-name="Trazado 36324" d="M4,0H54.79a4,4,0,0,1,4,4V35.443a4,4,0,0,1-4,4H4a4,4,0,0,1-4-4V4A4,4,0,0,1,4,0Z" transform="translate(6318.35 6741.102)" fill="#f5f9fc"></path><path id="Trazado_36325" data-name="Trazado 36325" d="M4,0H54.79a4,4,0,0,1,4,4V35.443a4,4,0,0,1-4,4H4a4,4,0,0,1-4-4V4A4,4,0,0,1,4,0Z" transform="translate(6318.35 6785.762)" fill="#f5f9fc"></path><path id="Trazado_36326" data-name="Trazado 36326" d="M4,0H54.79a4,4,0,0,1,4,4V35.443a4,4,0,0,1-4,4H4a4,4,0,0,1-4-4V4A4,4,0,0,1,4,0Z" transform="translate(6382.477 6607.119)" fill="#f5f9fc"></path><path id="Trazado_36327" data-name="Trazado 36327" d="M4,0H54.79a4,4,0,0,1,4,4V35.443a4,4,0,0,1-4,4H4a4,4,0,0,1-4-4V4A4,4,0,0,1,4,0Z" transform="translate(6446.602 6607.119)" fill="#f5f9fc"></path><path id="Trazado_36328" data-name="Trazado 36328" d="M4,0H54.79a4,4,0,0,1,4,4V35.443a4,4,0,0,1-4,4H4a4,4,0,0,1-4-4V4A4,4,0,0,1,4,0Z" transform="translate(6382.477 6651.779)" fill="#f5f9fc"></path><path id="Trazado_36329" data-name="Trazado 36329" d="M4,0H54.79a4,4,0,0,1,4,4V35.443a4,4,0,0,1-4,4H4a4,4,0,0,1-4-4V4A4,4,0,0,1,4,0Z" transform="translate(6382.477 6696.439)" fill="#f5f9fc"></path><path id="Trazado_36330" data-name="Trazado 36330" d="M4,0H54.79a4,4,0,0,1,4,4V35.443a4,4,0,0,1-4,4H4a4,4,0,0,1-4-4V4A4,4,0,0,1,4,0Z" transform="translate(6382.477 6741.102)" fill="#f5f9fc"></path><path id="Trazado_36331" data-name="Trazado 36331" d="M4,0H54.79a4,4,0,0,1,4,4V35.443a4,4,0,0,1-4,4H4a4,4,0,0,1-4-4V4A4,4,0,0,1,4,0Z" transform="translate(6382.477 6785.762)" fill="#f5f9fc"></path><path id="Trazado_36332" data-name="Trazado 36332" d="M4,0H54.79a4,4,0,0,1,4,4V35.443a4,4,0,0,1-4,4H4a4,4,0,0,1-4-4V4A4,4,0,0,1,4,0Z" transform="translate(6446.602 6651.779)" fill="#f5f9fc"></path><path id="Trazado_36333" data-name="Trazado 36333" d="M4,0H54.79a4,4,0,0,1,4,4V35.443a4,4,0,0,1-4,4H4a4,4,0,0,1-4-4V4A4,4,0,0,1,4,0Z" transform="translate(6446.602 6696.439)" fill="#f5f9fc"></path><path id="Trazado_36334" data-name="Trazado 36334" d="M4,0H54.79a4,4,0,0,1,4,4V35.443a4,4,0,0,1-4,4H4a4,4,0,0,1-4-4V4A4,4,0,0,1,4,0Z" transform="translate(6446.602 6741.102)" fill="#f5f9fc"></path><path id="Trazado_36335" data-name="Trazado 36335" d="M4,0H54.79a4,4,0,0,1,4,4V35.443a4,4,0,0,1-4,4H4a4,4,0,0,1-4-4V4A4,4,0,0,1,4,0Z" transform="translate(6446.602 6785.762)" fill="#f5f9fc"></path><path id="Trazado_36336" data-name="Trazado 36336" d="M4,0H54.79a4,4,0,0,1,4,4V35.443a4,4,0,0,1-4,4H4a4,4,0,0,1-4-4V4A4,4,0,0,1,4,0Z" transform="translate(6510.729 6607.119)" fill="#f5f9fc"></path><path id="Trazado_36337" data-name="Trazado 36337" d="M4,0H54.79a4,4,0,0,1,4,4V35.443a4,4,0,0,1-4,4H4a4,4,0,0,1-4-4V4A4,4,0,0,1,4,0Z" transform="translate(6510.729 6651.779)" fill="#f5f9fc"></path><path id="Trazado_36338" data-name="Trazado 36338" d="M4,0H54.79a4,4,0,0,1,4,4V35.443a4,4,0,0,1-4,4H4a4,4,0,0,1-4-4V4A4,4,0,0,1,4,0Z" transform="translate(6510.729 6696.439)" fill="#f5f9fc"></path><path id="Trazado_36339" data-name="Trazado 36339" d="M4,0H54.79a4,4,0,0,1,4,4V35.443a4,4,0,0,1-4,4H4a4,4,0,0,1-4-4V4A4,4,0,0,1,4,0Z" transform="translate(6510.729 6741.102)" fill="#f5f9fc"></path><path id="Trazado_36340" data-name="Trazado 36340" d="M4,0H54.79a4,4,0,0,1,4,4V35.443a4,4,0,0,1-4,4H4a4,4,0,0,1-4-4V4A4,4,0,0,1,4,0Z" transform="translate(6510.729 6785.762)" fill="#f5f9fc"></path><g id="Grupo_13600" data-name="Grupo 13600" transform="translate(5974.402 4103.129)"><ellipse id="Elipse_828" data-name="Elipse 828" cx="4.059" cy="4.059" rx="4.059" ry="4.059" transform="translate(203.865 2369.57)" fill="#ed6c5f"></ellipse><ellipse id="Elipse_829" data-name="Elipse 829" cx="4.084" cy="4.059" rx="4.084" ry="4.059" transform="translate(214.758 2369.57)" fill="#f5c150"></ellipse><ellipse id="Elipse_830" data-name="Elipse 830" cx="4.059" cy="4.059" rx="4.059" ry="4.059" transform="translate(225.652 2369.57)" fill="#63c656"></ellipse></g><g id="Grupo_13561" data-name="Grupo 13561" transform="translate(5967.682 5283.117)"><path id="Trazado_35346" data-name="Trazado 35346" d="M4,0H54.79a4,4,0,0,1,4,4V35.443a4,4,0,0,1-4,4H4a4,4,0,0,1-4-4V4A4,4,0,0,1,4,0Z" transform="translate(542.801 1324.002)" fill="#e38bef"></path><ellipse id="Elipse_699" data-name="Elipse 699" cx="4.433" cy="4.433" rx="4.433" ry="4.433" transform="translate(548.21 1333.439)" fill="#fff"></ellipse><ellipse id="Elipse_700" data-name="Elipse 700" cx="4.433" cy="4.433" rx="4.433" ry="4.433" transform="translate(548.21 1346.74)" fill="#fff"></ellipse><rect id="Rect&#xE1;ngulo_11324" data-name="Rect&#xE1;ngulo 11324" width="33.25" height="4.433" transform="translate(562.618 1335.658)" fill="#fff"></rect><rect id="Rect&#xE1;ngulo_11325" data-name="Rect&#xE1;ngulo 11325" width="33.25" height="4.433" transform="translate(562.618 1348.955)" fill="#fff"></rect></g><path id="Trazado_36006" data-name="Trazado 36006" d="M4.785-5.738v.684H2.852V0H2.063V-5.055H.129v-.684Zm3.447-.156a2.627,2.627,0,0,1,2.25.977,3.165,3.165,0,0,1,.57,1.949A3.411,3.411,0,0,1,10.4-.832a2.587,2.587,0,0,1-2.184,1A2.61,2.61,0,0,1,6.134-.707,3.3,3.3,0,0,1,5.459-2.84a3.392,3.392,0,0,1,.578-1.992A2.5,2.5,0,0,1,8.232-5.895ZM8.31-.527A1.618,1.618,0,0,0,9.8-1.264a3.134,3.134,0,0,0,.459-1.693,2.415,2.415,0,0,0-.529-1.629A1.807,1.807,0,0,0,8.279-5.2a1.885,1.885,0,0,0-1.453.611,2.577,2.577,0,0,0-.562,1.8,2.634,2.634,0,0,0,.482,1.607A1.814,1.814,0,0,0,8.31-.527Zm8.244-5.211v.684H14.62V0h-.789V-5.055H11.9v-.684ZM20.02-2.352l-.871-2.535-.926,2.535ZM18.743-5.738h.879L21.7,0h-.852L20.27-1.719H18L17.38,0h-.8Zm4.068,0h.777V-.684h2.906V0H22.811Z" transform="translate(6204.492 6541.633)" fill="#7daec7"></path><path id="Separated_they_live" data-name="Separated they live" d="M-7.932,0h1.7V-17.208h-4.08V-15.7h2.376Zm16.9-13.008A4.857,4.857,0,0,0,3.78-17.544c-4.392,0-6.1,3.432-6.1,8.88C-2.316-3.72-1.164.072,3.972.072c3.888,0,5.616-2.64,5.616-5.688,0-3.624-2.112-5.808-5.472-5.808a4.944,4.944,0,0,0-4.944,3.1c-.12-5.712,1.584-7.8,4.608-7.8A3.361,3.361,0,0,1,7.4-13.008ZM3.8-9.984c2.664,0,4.152,1.656,4.152,4.44A3.846,3.846,0,0,1,3.9-1.344,4.207,4.207,0,0,1-.612-5.88C-.612-8.712,1.668-9.984,3.8-9.984Z" transform="translate(6281.244 6567.932)" fill="#2376a1"></path><path id="Separated_they_live-2" data-name="Separated they live" d="M-12.732-17.232V-7.7h1.584A4.244,4.244,0,0,1-7.14-10.1C-4.4-10.1-2.964-8.5-2.964-5.88c0,2.592-1.32,4.512-4.224,4.512A4,4,0,0,1-11.412-4.68h-1.656c.432,2.856,2.544,4.752,5.88,4.752,4.056,0,5.832-2.736,5.832-5.976,0-2.712-1.416-5.64-5.568-5.64a5.339,5.339,0,0,0-4.248,1.92v-6.144h8.784v-1.464ZM1.572-8.76C1.572-3.744,2.676.048,7.4.048c4.7,0,5.832-3.792,5.832-8.808,0-4.92-1.128-8.688-5.832-8.688C2.676-17.448,1.572-13.68,1.572-8.76Zm10.008,0c0,4.032-.528,7.272-4.176,7.272S3.228-4.728,3.228-8.76c0-3.888.528-7.176,4.176-7.176S11.58-12.648,11.58-8.76Z" transform="translate(6219.492 6567.932)" fill="#2376a1"></path><path id="Separated_they_live-3" data-name="Separated they live" d="M-11.814-11.748h1.5a3.336,3.336,0,0,1,3.63-2.97c2.09,0,3.212,1.166,3.212,2.838,0,1.936-1.474,2.926-4.488,2.926H-8.47v1.3h.484c3.058,0,4.818,1.012,4.818,3.344,0,1.738-1.122,3.124-3.454,3.124a3.719,3.719,0,0,1-3.96-3.3h-1.5C-11.77-1.5-9.592.11-6.622.11-3.3.11-1.694-1.782-1.694-4.18A3.924,3.924,0,0,0-5.1-8.272v-.11A3.529,3.529,0,0,0-1.98-12.034c0-2.244-1.628-4.026-4.664-4.026C-9.592-16.06-11.594-14.432-11.814-11.748ZM8.756,0h1.518V-3.74h2.354V-5.082H10.274v-10.6H8.448L.44-4.906V-3.74H8.756ZM2.222-5.082l6.6-8.91v8.91Z" transform="translate(6376.855 6568.932)" fill="#2376a1"></path><path id="Trazado_36341" data-name="Trazado 36341" d="M3.969-1.6V-6.426H3.114v4.7a1.45,1.45,0,0,1-.22.846.918.918,0,0,1-.806.315,1.227,1.227,0,0,1-.517-.094.743.743,0,0,1-.315-.266A1.11,1.11,0,0,1,1.1-1.332a2.721,2.721,0,0,1-.045-.513v-.27H.2v.4A1.854,1.854,0,0,0,.684-.329,1.907,1.907,0,0,0,2.07.144,2.407,2.407,0,0,0,2.975,0a1.551,1.551,0,0,0,.585-.4,1.472,1.472,0,0,0,.315-.562A2.213,2.213,0,0,0,3.969-1.6Zm6.534-.72v-4.1H9.648v4.1A1.821,1.821,0,0,1,9.22-1.012a1.648,1.648,0,0,1-1.247.445,1.824,1.824,0,0,1-1.323-.445,1.744,1.744,0,0,1-.459-1.309v-4.1H5.337v4.1a2.325,2.325,0,0,0,.7,1.876A2.915,2.915,0,0,0,7.974.144,2.633,2.633,0,0,0,9.846-.472,2.419,2.419,0,0,0,10.5-2.322Zm1.4-4.1V0h.855V-6.426Zm2.286,0V0H15V-5.157h.018L18.378,0h.936V-6.426H18.5v5.211h-.018L15.1-6.426Zm8.7,2.3h.765a2.165,2.165,0,0,1,.059-.571A1.522,1.522,0,0,1,23.94-5.2a1.2,1.2,0,0,1,.392-.364,1.113,1.113,0,0,1,.571-.14,1.4,1.4,0,0,1,.477.081,1.144,1.144,0,0,1,.392.234,1.153,1.153,0,0,1,.266.365,1.1,1.1,0,0,1,.1.472,1.531,1.531,0,0,1-.1.585,1.536,1.536,0,0,1-.306.468,3.149,3.149,0,0,1-.508.427q-.306.212-.711.464-.333.2-.639.423a3.014,3.014,0,0,0-.549.522,2.587,2.587,0,0,0-.4.7,3.389,3.389,0,0,0-.2.968h4.167V-.675H23.607a1.209,1.209,0,0,1,.229-.526,2.474,2.474,0,0,1,.423-.428A4.686,4.686,0,0,1,24.8-2q.3-.175.594-.355t.576-.4a2.913,2.913,0,0,0,.5-.464,2.129,2.129,0,0,0,.347-.58,1.988,1.988,0,0,0,.13-.747,1.875,1.875,0,0,0-.157-.792,1.637,1.637,0,0,0-.427-.571,1.891,1.891,0,0,0-.635-.351,2.446,2.446,0,0,0-.778-.122,2.25,2.25,0,0,0-.9.171,1.837,1.837,0,0,0-.662.473A1.907,1.907,0,0,0,23-5.022,2.58,2.58,0,0,0,22.9-4.122Zm5.8.981q0-.234,0-.518a4.512,4.512,0,0,1,.045-.567,4.214,4.214,0,0,1,.117-.554,1.467,1.467,0,0,1,.225-.472,1.159,1.159,0,0,1,.373-.328,1.109,1.109,0,0,1,.549-.126,1.109,1.109,0,0,1,.549.126,1.159,1.159,0,0,1,.373.328,1.467,1.467,0,0,1,.225.472,4.214,4.214,0,0,1,.117.554,4.512,4.512,0,0,1,.045.567q0,.284,0,.518,0,.36-.022.806a3.391,3.391,0,0,1-.144.837,1.581,1.581,0,0,1-.392.661,1.022,1.022,0,0,1-.756.27,1.022,1.022,0,0,1-.756-.27,1.581,1.581,0,0,1-.392-.661,3.391,3.391,0,0,1-.144-.837Q28.692-2.781,28.692-3.141Zm-.81.009q0,.351.018.729a4.961,4.961,0,0,0,.09.738,3.509,3.509,0,0,0,.207.679,1.83,1.83,0,0,0,.369.563,1.632,1.632,0,0,0,.59.382A2.328,2.328,0,0,0,30.006.1a2.32,2.32,0,0,0,.855-.139,1.639,1.639,0,0,0,.585-.382,1.83,1.83,0,0,0,.369-.562,3.509,3.509,0,0,0,.207-.679,4.961,4.961,0,0,0,.09-.738q.018-.378.018-.729t-.018-.729a4.961,4.961,0,0,0-.09-.738,3.619,3.619,0,0,0-.207-.684,1.815,1.815,0,0,0-.369-.567,1.681,1.681,0,0,0-.59-.387,2.262,2.262,0,0,0-.85-.144,2.262,2.262,0,0,0-.851.144,1.681,1.681,0,0,0-.59.387,1.815,1.815,0,0,0-.369.567,3.619,3.619,0,0,0-.207.684,4.961,4.961,0,0,0-.09.738Q27.882-3.483,27.882-3.132Zm5.022-.99h.765a2.165,2.165,0,0,1,.059-.571,1.522,1.522,0,0,1,.22-.509,1.2,1.2,0,0,1,.392-.364,1.113,1.113,0,0,1,.571-.14,1.4,1.4,0,0,1,.477.081,1.144,1.144,0,0,1,.391.234,1.153,1.153,0,0,1,.265.365,1.1,1.1,0,0,1,.1.472,1.531,1.531,0,0,1-.1.585,1.536,1.536,0,0,1-.306.468,3.149,3.149,0,0,1-.509.427q-.306.212-.711.464-.333.2-.639.423a3.014,3.014,0,0,0-.549.522,2.587,2.587,0,0,0-.4.7,3.389,3.389,0,0,0-.2.968h4.167V-.675H33.615a1.209,1.209,0,0,1,.229-.526,2.474,2.474,0,0,1,.423-.428A4.686,4.686,0,0,1,34.812-2q.3-.175.594-.355t.576-.4a2.913,2.913,0,0,0,.5-.464,2.129,2.129,0,0,0,.346-.58,1.988,1.988,0,0,0,.131-.747,1.875,1.875,0,0,0-.157-.792,1.637,1.637,0,0,0-.428-.571,1.891,1.891,0,0,0-.634-.351,2.446,2.446,0,0,0-.778-.122,2.25,2.25,0,0,0-.9.171,1.837,1.837,0,0,0-.661.473A1.907,1.907,0,0,0,33-5.022,2.58,2.58,0,0,0,32.9-4.122ZM40.716,0V-6.381h-.585a1.4,1.4,0,0,1-.234.594,1.262,1.262,0,0,1-.418.369,1.72,1.72,0,0,1-.553.185,3.94,3.94,0,0,1-.63.049v.612h1.656V0Z" transform="translate(6514 6540)" fill="#446477"></path><path id="Trazado_36342" data-name="Trazado 36342" d="M2.979-2.016c0,.468-.216.7-.585.7-.4,0-.63-.261-.63-.8H.234A2.026,2.026,0,0,0,2.439.063,1.907,1.907,0,0,0,4.518-2.016v-4.3H2.979Zm3.2-.531A2.423,2.423,0,0,0,8.793.063a2.482,2.482,0,0,0,2.682-2.61V-6.318H9.936v3.78A1.038,1.038,0,0,1,8.82-1.359c-.729,0-1.1-.432-1.1-1.179v-3.78H6.183ZM13,0h1.539V-6.318H13Zm7.218-6.318V-2.4L17.649-6.318H16.11V0h1.539V-3.9L20.223,0h1.539V-6.318ZM26.082-.072h4.329V-.756h-3.1C28.476-1.7,30.222-3.078,30.222-4.7a1.831,1.831,0,0,0-2.016-1.926,1.994,1.994,0,0,0-2.1,2.106H26.9a1.286,1.286,0,0,1,1.314-1.4,1.1,1.1,0,0,1,1.2,1.26c0,1.332-1.62,2.628-3.33,4.005Zm5.724-3.249c0,1.89.468,3.321,2.268,3.321s2.259-1.431,2.259-3.321c0-1.863-.468-3.285-2.259-3.285S31.806-5.184,31.806-3.321Zm3.717,0c0,1.4-.171,2.574-1.449,2.574s-1.458-1.17-1.458-2.574c0-1.35.171-2.538,1.458-2.538S35.523-4.671,35.523-3.321ZM37.809-.072h4.329V-.756h-3.1C40.2-1.7,41.949-3.078,41.949-4.7a1.831,1.831,0,0,0-2.016-1.926,1.994,1.994,0,0,0-2.1,2.106h.792a1.286,1.286,0,0,1,1.314-1.4,1.1,1.1,0,0,1,1.2,1.26c0,1.332-1.62,2.628-3.33,4.005ZM44.181,0h.828V-6.507H43.317v.747h.864Z" transform="translate(6517 6582)" fill="#2376a1"></path><path id="Trazado_36343" data-name="Trazado 36343" d="M1.436-3.088V-5.262H2.98a1.45,1.45,0,0,1,.984.278,1.029,1.029,0,0,1,.311.809,1.042,1.042,0,0,1-.311.813,1.408,1.408,0,0,1-.984.274ZM.647-5.926V0h.788V-2.424H3.245A1.805,1.805,0,0,0,4.6-2.88a1.759,1.759,0,0,0,.461-1.295A1.745,1.745,0,0,0,4.6-5.466a1.84,1.84,0,0,0-1.357-.461Zm5.793,0V0h.789V-2.532H9.155a1.047,1.047,0,0,1,.465.087.778.778,0,0,1,.282.232.963.963,0,0,1,.158.34q.05.2.083.411a2.893,2.893,0,0,1,.05.44q.008.224.017.419a2.558,2.558,0,0,0,.037.353A.5.5,0,0,0,10.358,0h.88a1.013,1.013,0,0,1-.187-.344,2.7,2.7,0,0,1-.1-.411,3.821,3.821,0,0,1-.042-.44q-.008-.224-.025-.44a3.815,3.815,0,0,0-.071-.415,1.26,1.26,0,0,0-.141-.361.91.91,0,0,0-.257-.278A1.056,1.056,0,0,0,10-2.855v-.017a1.26,1.26,0,0,0,.784-.556,1.8,1.8,0,0,0,.245-.946,1.428,1.428,0,0,0-.477-1.137A1.951,1.951,0,0,0,9.23-5.926ZM8.873-3.2H7.229V-5.262H9.188a1.023,1.023,0,0,1,.805.282,1.063,1.063,0,0,1,.249.73,1.087,1.087,0,0,1-.112.527.886.886,0,0,1-.3.324,1.141,1.141,0,0,1-.436.162A3.178,3.178,0,0,1,8.873-3.2Zm7.76-2.731v.664h-3.3v1.884h3.079v.664H13.33v2.05h3.328V0H12.541V-5.926Zm-1-1.768L14.459-6.35h-.531l.8-1.345Zm5.827,3.5H22.2a2.089,2.089,0,0,0-.187-.842,1.641,1.641,0,0,0-.465-.585,1.917,1.917,0,0,0-.685-.34,3.167,3.167,0,0,0-.847-.108,3.04,3.04,0,0,0-.793.1,2.179,2.179,0,0,0-.689.315,1.6,1.6,0,0,0-.486.54,1.57,1.57,0,0,0-.183.776,1.3,1.3,0,0,0,.162.676,1.312,1.312,0,0,0,.432.44,2.508,2.508,0,0,0,.61.274q.34.1.693.183l.693.154a3.16,3.16,0,0,1,.61.2A1.189,1.189,0,0,1,21.5-2.1a.744.744,0,0,1,.162.5.969.969,0,0,1-.133.531.966.966,0,0,1-.349.328,1.577,1.577,0,0,1-.486.17,2.944,2.944,0,0,1-.535.05,2.533,2.533,0,0,1-.647-.083,1.611,1.611,0,0,1-.552-.257,1.321,1.321,0,0,1-.382-.444,1.339,1.339,0,0,1-.145-.643h-.747a2.084,2.084,0,0,0,.2.934,1.79,1.79,0,0,0,.531.647,2.326,2.326,0,0,0,.78.378,3.475,3.475,0,0,0,.942.125,3.6,3.6,0,0,0,.818-.1A2.366,2.366,0,0,0,21.7-.27a1.742,1.742,0,0,0,.544-.548,1.488,1.488,0,0,0,.212-.809,1.486,1.486,0,0,0-.162-.73,1.442,1.442,0,0,0-.432-.481,2.286,2.286,0,0,0-.61-.3q-.34-.112-.693-.2t-.693-.154a3.629,3.629,0,0,1-.61-.178,1.2,1.2,0,0,1-.432-.278.618.618,0,0,1-.162-.444.962.962,0,0,1,.112-.486.871.871,0,0,1,.3-.311,1.3,1.3,0,0,1,.427-.166,2.411,2.411,0,0,1,.49-.05,1.673,1.673,0,0,1,1.008.286A1.235,1.235,0,0,1,21.456-4.192Zm2.365-1.735V0h4.117V-.664H24.61v-2.05h3.079v-.664H24.61V-5.262h3.3v-.664Zm5.478,0V0h.747V-4.756h.017L33.159,0h.863V-5.926h-.747v4.806h-.017L30.137-5.926Zm7.761.664V0h.788V-5.262h1.975v-.664H35.084v.664Zm3.868-.664V0h.789V-5.926Zm2.532,0V0h4.117V-.664H44.247v-2.05h3.079v-.664H44.247V-5.262h3.3v-.664Zm5.486,0V0h3.926V-.664H49.734V-5.926Z" transform="translate(6270 6542)" fill="#7daec7"></path><path id="Trazado_36344" data-name="Trazado 36344" d="M3.677-2.448,2.689-5.212H2.673l-1,2.764ZM3.129-5.926,5.445,0H4.573L3.926-1.785H1.419L.755,0H-.05L2.258-5.926Zm.755-1.768L2.714-6.35H2.183l.8-1.345ZM9.952-.664v-4.6H11.28a2.43,2.43,0,0,1,.921.154,1.5,1.5,0,0,1,.61.448,1.822,1.822,0,0,1,.34.714,3.967,3.967,0,0,1,.1.95,3.384,3.384,0,0,1-.112.934,2.274,2.274,0,0,1-.286.643,1.5,1.5,0,0,1-.394.407,1.935,1.935,0,0,1-.444.228,1.862,1.862,0,0,1-.423.1,3.307,3.307,0,0,1-.332.021ZM9.163-5.926V0H11.2a3.557,3.557,0,0,0,1.278-.208,2.23,2.23,0,0,0,.888-.6,2.475,2.475,0,0,0,.515-.971A4.8,4.8,0,0,0,14.044-3.1,2.791,2.791,0,0,0,13.3-5.229a2.955,2.955,0,0,0-2.108-.7Zm6.291,0V0h.788V-5.926Zm5.959,1.735h.747a2.089,2.089,0,0,0-.187-.842,1.641,1.641,0,0,0-.465-.585,1.917,1.917,0,0,0-.685-.34,3.167,3.167,0,0,0-.847-.108,3.04,3.04,0,0,0-.793.1,2.179,2.179,0,0,0-.689.315,1.6,1.6,0,0,0-.486.54,1.57,1.57,0,0,0-.183.776,1.3,1.3,0,0,0,.162.676,1.312,1.312,0,0,0,.432.44,2.508,2.508,0,0,0,.61.274q.34.1.693.183l.693.154a3.16,3.16,0,0,1,.61.2,1.189,1.189,0,0,1,.432.311.744.744,0,0,1,.162.5.969.969,0,0,1-.133.531.966.966,0,0,1-.349.328,1.577,1.577,0,0,1-.486.17,2.944,2.944,0,0,1-.535.05,2.533,2.533,0,0,1-.647-.083,1.611,1.611,0,0,1-.552-.257,1.321,1.321,0,0,1-.382-.444,1.339,1.339,0,0,1-.145-.643h-.747a2.084,2.084,0,0,0,.2.934,1.79,1.79,0,0,0,.531.647,2.326,2.326,0,0,0,.78.378,3.475,3.475,0,0,0,.942.125,3.6,3.6,0,0,0,.818-.1,2.366,2.366,0,0,0,.743-.307A1.742,1.742,0,0,0,22.2-.818a1.488,1.488,0,0,0,.212-.809,1.486,1.486,0,0,0-.162-.73,1.442,1.442,0,0,0-.432-.481,2.286,2.286,0,0,0-.61-.3q-.34-.112-.693-.2T19.82-3.49a3.629,3.629,0,0,1-.61-.178,1.2,1.2,0,0,1-.432-.278.618.618,0,0,1-.162-.444.962.962,0,0,1,.112-.486.871.871,0,0,1,.3-.311,1.3,1.3,0,0,1,.427-.166,2.411,2.411,0,0,1,.49-.05,1.673,1.673,0,0,1,1.008.286A1.235,1.235,0,0,1,21.414-4.192Zm3.71-1.071V0h.788V-5.262h1.975v-.664H23.149v.664Zm4.092,2.814,1-2.764h.017l.988,2.764Zm.589-3.478L27.5,0H28.3l.664-1.785h2.507L32.121,0h.871L30.677-5.926Zm4.175,0V0h.747V-4.756h.017L37.84,0H38.7V-5.926h-.747v4.806h-.017L34.819-5.926ZM44.563-4.142h.789a2.205,2.205,0,0,0-.282-.834,2.052,2.052,0,0,0-.54-.6,2.365,2.365,0,0,0-.739-.365,3.046,3.046,0,0,0-.88-.124,2.836,2.836,0,0,0-1.208.245,2.5,2.5,0,0,0-.88.668,2.93,2.93,0,0,0-.535.992,3.954,3.954,0,0,0-.183,1.216,4.179,4.179,0,0,0,.17,1.212,2.8,2.8,0,0,0,.51.979,2.364,2.364,0,0,0,.855.652,2.857,2.857,0,0,0,1.2.237A2.5,2.5,0,0,0,44.637-.49a2.692,2.692,0,0,0,.772-1.743h-.788a2.261,2.261,0,0,1-.149.681,1.643,1.643,0,0,1-.344.544,1.569,1.569,0,0,1-.523.357,1.759,1.759,0,0,1-.693.129A1.951,1.951,0,0,1,42-.722a1.783,1.783,0,0,1-.627-.535,2.293,2.293,0,0,1-.361-.788A3.84,3.84,0,0,1,40.894-3a3.433,3.433,0,0,1,.116-.9,2.311,2.311,0,0,1,.361-.768,1.794,1.794,0,0,1,.623-.535,1.925,1.925,0,0,1,.909-.2,1.832,1.832,0,0,1,1.075.315A1.466,1.466,0,0,1,44.563-4.142ZM46.8-5.926V0h4.117V-.664H47.592v-2.05h3.079v-.664H47.592V-5.262h3.3v-.664Z" transform="translate(6363 6542)" fill="#7daec7"></path></g></svg>