<svg xmlns="http://www.w3.org/2000/svg" width="70" height="70" viewBox="0 0 70 70"><g id="Group_2308" data-name="Group 2308" transform="translate(-636.422 -6236.06)"><g id="Group_2305" data-name="Group 2305" transform="translate(-176.223)"><g id="Group_2298" data-name="Group 2298" transform="translate(798.146 6220.386)"><rect id="Rectangle_5386" data-name="Rectangle 5386" width="70" height="70" rx="6" transform="translate(14.5 15.674)" fill="#8cdbcf"></rect><g id="Group_1716" data-name="Group 1716" transform="translate(27.883 35.227)"><path id="Path_1369" data-name="Path 1369" d="M3.707,0H30.741a3.707,3.707,0,0,1,3.707,3.707V23.091H0V3.707A3.707,3.707,0,0,1,3.707,0Z" transform="translate(4.393)" fill="#fff"></path><path id="Subtraction_95" data-name="Subtraction 95" d="M40.451,5.358H2.78A2.783,2.783,0,0,1,0,2.578V0H17.283a2.977,2.977,0,0,0,2.4,1.2h3.871a2.977,2.977,0,0,0,2.4-1.2H43.232V2.578A2.783,2.783,0,0,1,40.451,5.358Z" transform="translate(0.001 25.021)" fill="#fff"></path><g id="Group_1785" data-name="Group 1785" transform="translate(16.389 5.01)"><circle id="Ellipse_158" data-name="Ellipse 158" cx="3.692" cy="3.692" r="3.692" transform="translate(1.536 0)" fill="#57cbbb"></circle><path id="Path_1327" data-name="Path 1327" d="M19.82,59.451c2.887,0,5.228-.993,5.228-1.67,0-1.094-1.345-2.668-3.253-3.367a4.044,4.044,0,0,1-3.949,0c-1.908.7-3.253,2.273-3.253,3.367C14.592,58.458,16.933,59.451,19.82,59.451Z" transform="translate(-14.592 -46.211)" fill="#57cbbb"></path></g></g></g></g></g></svg>