<svg xmlns="http://www.w3.org/2000/svg" width="70" height="70" viewBox="0 0 70 70"><g id="Group_2310" data-name="Group 2310" transform="translate(-636.422 -6456.061)"><path id="Path_1619" data-name="Path 1619" d="M6,0H64a6,6,0,0,1,6,6V64a6,6,0,0,1-6,6H6a6,6,0,0,1-6-6V6A6,6,0,0,1,6,0Z" transform="translate(636.422 6456.061)" fill="#a9b1f7"></path><g id="Group_2307" data-name="Group 2307" transform="translate(657.4 6471.897)"><path id="Path_1371" data-name="Path 1371" d="M198.065-1.084h0v2.8a.936.936,0,0,0,.935.935h9.348a.936.936,0,0,0,.935-.935v-2.8Z" transform="translate(-189.65 1.084)" fill="#fff"></path><path id="Path_1370" data-name="Path 1370" d="M213.368.916h-2.8v.932h0c0,.018,0,.035,0,.052a2.827,2.827,0,0,1-2.8,2.752h-9.348a2.827,2.827,0,0,1-2.8-2.752c0-.018-.006-.035-.006-.052h0V.916H192.8a3.74,3.74,0,0,0-3.739,3.739V33.635a3.74,3.74,0,0,0,3.739,3.739h20.566a3.739,3.739,0,0,0,3.739-3.739V4.655A3.739,3.739,0,0,0,213.368.916Z" transform="translate(-189.063 0.954)" fill="#fff"></path><rect id="Rectangle_5397" data-name="Rectangle 5397" width="14.957" height="3.739" rx="1.87" transform="translate(6.544 28.044)" fill="#7e8bf4"></rect><path id="Path_1276" data-name="Path 1276" d="M608.492,465.954a.36.36,0,0,0,.275,0c.209-.087,5.141-2.192,6.042-6.246a4,4,0,0,0-2.25-4.768,6.988,6.988,0,0,1-7.861,0,4,4,0,0,0-2.249,4.768C603.351,463.762,608.283,465.866,608.492,465.954Z" transform="translate(-594.607 -443.028)" fill="#7e8bf4"></path></g></g></svg>