<svg xmlns="http://www.w3.org/2000/svg" width="70" height="70" viewBox="0 0 70 70"><g id="Group_2311" data-name="Group 2311" transform="translate(-636.422 -6566.061)"><path id="Path_1620" data-name="Path 1620" d="M6,0H64a6,6,0,0,1,6,6V64a6,6,0,0,1-6,6H6a6,6,0,0,1-6-6V6A6,6,0,0,1,6,0Z" transform="translate(636.422 6566.061)" fill="#dab1f4"></path><g id="Group_2306" data-name="Group 2306" transform="translate(655.422 6582.561)"><path id="Path_1370" data-name="Path 1370" d="M215.063.916h-22a4,4,0,0,0-4,4v31a4,4,0,0,0,4,4h22a4,4,0,0,0,4-4v-31A4,4,0,0,0,215.063.916Z" transform="translate(-189.063 -0.916)" fill="#fff"></path><rect id="Rectangle_5397" data-name="Rectangle 5397" width="16" height="4" rx="2" transform="translate(7 28)" fill="#e38bef"></rect><g id="Group_1790" data-name="Group 1790" transform="translate(9 8.122)"><circle id="Ellipse_158" data-name="Ellipse 158" cx="3.984" cy="3.984" r="3.984" transform="translate(1.657 0)" fill="#e38bef"></circle><path id="Path_1327" data-name="Path 1327" d="M20.233,59.85c3.116,0,5.641-1.072,5.641-1.8,0-1.181-1.451-2.88-3.511-3.633a4.364,4.364,0,0,1-4.262,0c-2.059.754-3.51,2.453-3.51,3.633C14.592,58.778,17.118,59.85,20.233,59.85Z" transform="translate(-14.592 -45.562)" fill="#e38bef"></path></g><path id="Path_1372" data-name="Path 1372" d="M0,0H0V3A.909.909,0,0,0,.88,4H5.652a.93.93,0,0,0,.881-1V0Z" transform="translate(31.4 18.533) rotate(-90)" fill="#fff"></path><path id="Path_1374" data-name="Path 1374" d="M0,0H0V3A.909.909,0,0,0,.88,4H5.652a.93.93,0,0,0,.881-1V0Z" transform="translate(31.4 10.533) rotate(-90)" fill="#fff"></path><path id="Path_1373" data-name="Path 1373" d="M0,0H0V3A.909.909,0,0,0,.88,4H5.652a.93.93,0,0,0,.881-1V0Z" transform="translate(31.4 26.533) rotate(-90)" fill="#fff"></path></g></g></svg>