<svg xmlns="http://www.w3.org/2000/svg" xmlns:xlink="http://www.w3.org/1999/xlink" width="126.943" height="126.943" viewBox="0 0 126.943 126.943"><defs><linearGradient id="a" x1="0.095" y1="0.091" x2="0.843" y2="0.886" gradientUnits="objectBoundingBox"><stop offset="0" stop-color="#fff" stop-opacity="0.867"></stop><stop offset="1" stop-color="#fff" stop-opacity="0"></stop></linearGradient><filter id="b" x="-0.001" y="0" width="126.943" height="126.943" filterUnits="userSpaceOnUse"><feGaussianBlur stdDeviation="9.5"></feGaussianBlur></filter></defs><g transform="translate(-656.529 -3823.935)"><g transform="translate(548.494 10.076)"><g transform="translate(-9319.762 22984.492)"><g transform="translate(9448.432 -19153)"><g transform="translate(0 0)"><ellipse cx="42.836" cy="42.836" rx="42.836" ry="42.836" transform="translate(0 0)" fill="url(#a)"></ellipse><g transform="translate(0 0)" fill="none" stroke="#fff" stroke-width="1"><ellipse cx="42.836" cy="42.836" rx="42.836" ry="42.836" stroke="none"></ellipse><ellipse cx="42.836" cy="42.836" rx="42.336" ry="42.336" fill="none"></ellipse></g></g><g transform="matrix(1, 0, 0, 1, -20.64, -17.63)" filter="url(#b)"><circle cx="34.972" cy="34.972" r="34.972" transform="translate(28.5 25.5)" fill="#fff"></circle></g><ellipse cx="25.675" cy="25.675" rx="25.675" ry="25.675" transform="translate(17.161 17.164)" fill="#3cb6f5"></ellipse></g></g></g><g transform="translate(2639.79 3777.404)"><path d="M-1284.493,96.273a4.856,4.856,0,0,0-4.85-4.851,4.857,4.857,0,0,0-4.851,4.851,4.93,4.93,0,0,0,4.851,4.935A4.929,4.929,0,0,0-1284.493,96.273Z" transform="translate(-630.447 0)" fill="#fff"></path><path d="M-1974.716,338.285c0,1.765,4.056,3.2,9.06,3.2s9.06-1.431,9.06-3.2a6.456,6.456,0,0,0-4.932-6.272.8.8,0,0,0-.771.348l-3.261,3.056-3.3-3.1a.81.81,0,0,0-.858-.322,6.579,6.579,0,0,0-3.4,2.041A6.325,6.325,0,0,0-1974.716,338.285Z" transform="translate(45.866 -229.901)" fill="#fff"></path></g><g transform="translate(700.5 3881.982)" fill="#fff"><path d="M 10.36120128631592 13.10069370269775 C 10.06623077392578 13.10070323944092 9.776700973510742 13.01046371459961 9.523910522460938 12.83973407745361 L 7.77984094619751 11.66184329986572 C 7.69688081741333 11.60581398010254 7.60011100769043 11.57620334625244 7.500000953674316 11.57620334625244 C 7.399890899658203 11.57620334625244 7.303121089935303 11.60581398010254 7.220160961151123 11.66184329986572 L 5.476090908050537 12.83973407745361 C 5.223310947418213 13.01045322418213 4.933781147003174 13.10069370269775 4.638811111450195 13.10069370269775 C 4.16546106338501 13.10069370269775 3.71186089515686 12.87030410766602 3.4254310131073 12.48439407348633 C 3.143450975418091 12.10448360443115 3.061580896377563 11.62260341644287 3.200830936431885 11.16233348846436 L 3.78528094291687 9.230403900146484 C 3.845790863037109 9.030384063720703 3.774240970611572 8.811614036560059 3.60723090171814 8.686023712158203 L 1.995590925216675 7.473953723907471 C 1.477970957756042 7.084673881530762 1.27112090587616 6.434573650360107 1.468611001968384 5.81774377822876 C 1.666110992431641 5.200923442840576 2.212080955505371 4.791863441467285 2.859550952911377 4.775623798370361 L 4.928511142730713 4.723703861236572 C 5.136250972747803 4.718493461608887 5.315980911254883 4.588793754577637 5.386381149291992 4.393283843994141 L 6.088730812072754 2.443063735961914 C 6.305700778961182 1.840603590011597 6.8596510887146 1.451323628425598 7.500000953674316 1.451323628425598 C 8.140351295471191 1.451323628425598 8.694300651550293 1.840603590011597 8.911271095275879 2.443063735961914 L 9.613600730895996 4.393283843994141 C 9.68402099609375 4.588793754577637 9.863751411437988 4.718493461608887 10.0714807510376 4.723703861236572 L 12.1404504776001 4.775623798370361 C 12.78792095184326 4.791863441467285 13.33389091491699 5.200923442840576 13.53139114379883 5.81774377822876 C 13.72888088226318 6.434573650360107 13.5220308303833 7.084673881530762 13.00441074371338 7.473953723907471 L 11.39277076721191 8.686013221740723 C 11.22576141357422 8.811614036560059 11.15421104431152 9.030384063720703 11.21472072601318 9.230403900146484 L 11.79917049407959 11.16233348846436 C 11.93841075897217 11.62257385253906 11.85654067993164 12.1044340133667 11.57455062866211 12.48435401916504 C 11.28812122344971 12.87027359008789 10.8345308303833 13.10068321228027 10.36120128631592 13.10069370269775 Z" stroke="none"></path><path d="M 7.500003814697266 1.95131778717041 C 7.108948707580566 1.95131778717041 6.717890739440918 2.171709060668945 6.559150695800781 2.612483978271484 L 5.856810569763184 4.56269359588623 C 5.717060089111328 4.950753211975098 5.35338020324707 5.213203430175781 4.94105052947998 5.223544120788574 L 2.872090339660645 5.275464057922363 C 1.924690246582031 5.299233436584473 1.538710594177246 6.504734039306641 2.296120643615723 7.074353694915771 L 3.907760620117188 8.286413192749023 C 4.243160247802734 8.538654327392578 4.385380744934082 8.973493576049805 4.263860702514648 9.37518310546875 L 3.679410934448242 11.30711364746094 C 3.469697952270508 12.00031471252441 4.019006729125977 12.6006908416748 4.638812065124512 12.6006908416748 C 4.824440002441406 12.6006908416748 5.016501426696777 12.54677867889404 5.196250915527344 12.42538356781006 L 6.940320014953613 11.24749374389648 C 7.109405517578125 11.13329887390137 7.304702758789062 11.07620143890381 7.500000476837158 11.07620143890381 C 7.695298194885254 11.07620143890381 7.890595436096191 11.13329887390137 8.059680938720703 11.24749374389648 L 9.803750991821289 12.42538356781006 C 9.983547210693359 12.54681015014648 10.17551612854004 12.6006908416748 10.3611888885498 12.6006908416748 C 10.98093414306641 12.6006908416748 11.53028678894043 12.00026035308838 11.32059097290039 11.30711364746094 L 10.73614025115967 9.37518310546875 C 10.61462020874023 8.973493576049805 10.75684070587158 8.538654327392578 11.09224033355713 8.286413192749023 L 12.70388031005859 7.074353694915771 C 13.46129035949707 6.504734039306641 13.07531070709229 5.299233436584473 12.12791061401367 5.275464057922363 L 10.05895042419434 5.223544120788574 C 9.64661979675293 5.213203430175781 9.282939910888672 4.950753211975098 9.143180847167969 4.56269359588623 L 8.440850257873535 2.612483978271484 C 8.282110214233398 2.171703338623047 7.891058921813965 1.95131778717041 7.500003814697266 1.95131778717041 M 7.500000476837158 0.9513139724731445 C 8.353790283203125 0.9513139724731445 9.092400550842285 1.470363616943359 9.38170051574707 2.273653984069824 L 10.08403015136719 4.22386360168457 L 12.153000831604 4.275774002075195 C 13.01628017425537 4.297433853149414 13.74425029754639 4.842853546142578 14.00757026672363 5.665283203125 C 14.27090072631836 6.487713813781738 13.9951000213623 7.354513645172119 13.30493068695068 7.873563766479492 L 11.69330024719238 9.085623741149902 L 12.27775001525879 11.01755332946777 C 12.46328067779541 11.63081359863281 12.35331058502197 12.27407360076904 11.97603988647461 12.78237342834473 C 11.59571075439453 13.29477405548096 10.99203109741211 13.60069370269775 10.36119079589844 13.60069370269775 C 9.966110229492188 13.60069370269775 9.579811096191406 13.48084354400635 9.244070053100586 13.25409317016602 L 7.500000476837158 12.07620334625244 L 5.75593090057373 13.25409317016602 C 5.420160293579102 13.48084354400635 5.033880233764648 13.60069370269775 4.638810157775879 13.60069370269775 C 4.007950782775879 13.60069370269775 3.404260635375977 13.2947940826416 3.023950576782227 12.78240394592285 C 2.64668083190918 12.27411365509033 2.536710739135742 11.6308536529541 2.722250938415527 11.01755332946777 L 3.306700706481934 9.085623741149902 L 1.695060729980469 7.873563766479492 C 1.004900932312012 7.354513645172119 0.729100227355957 6.487713813781738 0.9924306869506836 5.665283203125 C 1.25575065612793 4.842853546142578 1.983720779418945 4.297433853149414 2.847010612487793 4.275774002075195 L 4.915960311889648 4.223854064941406 L 5.618300437927246 2.273653984069824 C 5.907600402832031 1.470363616943359 6.646210670471191 0.9513139724731445 7.500000476837158 0.9513139724731445 Z" stroke="none" fill="#3cb6f5"></path></g><g transform="translate(712.5 3885.982)" fill="#fff"><path d="M 10.36120128631592 13.10069370269775 C 10.06623077392578 13.10070323944092 9.776700973510742 13.01046371459961 9.523910522460938 12.83973407745361 L 7.77984094619751 11.66184329986572 C 7.69688081741333 11.60581398010254 7.60011100769043 11.57620334625244 7.500000953674316 11.57620334625244 C 7.399890899658203 11.57620334625244 7.303121089935303 11.60581398010254 7.220160961151123 11.66184329986572 L 5.476090908050537 12.83973407745361 C 5.223310947418213 13.01045322418213 4.933781147003174 13.10069370269775 4.638811111450195 13.10069370269775 C 4.16546106338501 13.10069370269775 3.71186089515686 12.87030410766602 3.4254310131073 12.48439407348633 C 3.143450975418091 12.10448360443115 3.061580896377563 11.62260341644287 3.200830936431885 11.16233348846436 L 3.78528094291687 9.230403900146484 C 3.845790863037109 9.030384063720703 3.774240970611572 8.811614036560059 3.60723090171814 8.686023712158203 L 1.995590925216675 7.473953723907471 C 1.477970957756042 7.084673881530762 1.27112090587616 6.434573650360107 1.468611001968384 5.81774377822876 C 1.666110992431641 5.200923442840576 2.212080955505371 4.791863441467285 2.859550952911377 4.775623798370361 L 4.928511142730713 4.723703861236572 C 5.136250972747803 4.718493461608887 5.315980911254883 4.588793754577637 5.386381149291992 4.393283843994141 L 6.088730812072754 2.443063735961914 C 6.305700778961182 1.840603590011597 6.8596510887146 1.451323628425598 7.500000953674316 1.451323628425598 C 8.140351295471191 1.451323628425598 8.694300651550293 1.840603590011597 8.911271095275879 2.443063735961914 L 9.613600730895996 4.393283843994141 C 9.68402099609375 4.588793754577637 9.863751411437988 4.718493461608887 10.0714807510376 4.723703861236572 L 12.1404504776001 4.775623798370361 C 12.78792095184326 4.791863441467285 13.33389091491699 5.200923442840576 13.53139114379883 5.81774377822876 C 13.72888088226318 6.434573650360107 13.5220308303833 7.084673881530762 13.00441074371338 7.473953723907471 L 11.39277076721191 8.686013221740723 C 11.22576141357422 8.811614036560059 11.15421104431152 9.030384063720703 11.21472072601318 9.230403900146484 L 11.79917049407959 11.16233348846436 C 11.93841075897217 11.62257385253906 11.85654067993164 12.1044340133667 11.57455062866211 12.48435401916504 C 11.28812122344971 12.87027359008789 10.8345308303833 13.10068321228027 10.36120128631592 13.10069370269775 Z" stroke="none"></path><path d="M 7.500003814697266 1.95131778717041 C 7.108948707580566 1.95131778717041 6.717890739440918 2.171709060668945 6.559150695800781 2.612483978271484 L 5.856810569763184 4.56269359588623 C 5.717060089111328 4.950753211975098 5.35338020324707 5.213203430175781 4.94105052947998 5.223544120788574 L 2.872090339660645 5.275464057922363 C 1.924690246582031 5.299233436584473 1.538710594177246 6.504734039306641 2.296120643615723 7.074353694915771 L 3.907760620117188 8.286413192749023 C 4.243160247802734 8.538654327392578 4.385380744934082 8.973493576049805 4.263860702514648 9.37518310546875 L 3.679410934448242 11.30711364746094 C 3.469697952270508 12.00031471252441 4.019006729125977 12.6006908416748 4.638812065124512 12.6006908416748 C 4.824440002441406 12.6006908416748 5.016501426696777 12.54677867889404 5.196250915527344 12.42538356781006 L 6.940320014953613 11.24749374389648 C 7.109405517578125 11.13329887390137 7.304702758789062 11.07620143890381 7.500000476837158 11.07620143890381 C 7.695298194885254 11.07620143890381 7.890595436096191 11.13329887390137 8.059680938720703 11.24749374389648 L 9.803750991821289 12.42538356781006 C 9.983547210693359 12.54681015014648 10.17551612854004 12.6006908416748 10.3611888885498 12.6006908416748 C 10.98093414306641 12.6006908416748 11.53028678894043 12.00026035308838 11.32059097290039 11.30711364746094 L 10.73614025115967 9.37518310546875 C 10.61462020874023 8.973493576049805 10.75684070587158 8.538654327392578 11.09224033355713 8.286413192749023 L 12.70388031005859 7.074353694915771 C 13.46129035949707 6.504734039306641 13.07531070709229 5.299233436584473 12.12791061401367 5.275464057922363 L 10.05895042419434 5.223544120788574 C 9.64661979675293 5.213203430175781 9.282939910888672 4.950753211975098 9.143180847167969 4.56269359588623 L 8.440850257873535 2.612483978271484 C 8.282110214233398 2.171703338623047 7.891058921813965 1.95131778717041 7.500003814697266 1.95131778717041 M 7.500000476837158 0.9513139724731445 C 8.353790283203125 0.9513139724731445 9.092400550842285 1.470363616943359 9.38170051574707 2.273653984069824 L 10.08403015136719 4.22386360168457 L 12.153000831604 4.275774002075195 C 13.01628017425537 4.297433853149414 13.74425029754639 4.842853546142578 14.00757026672363 5.665283203125 C 14.27090072631836 6.487713813781738 13.9951000213623 7.354513645172119 13.30493068695068 7.873563766479492 L 11.69330024719238 9.085623741149902 L 12.27775001525879 11.01755332946777 C 12.46328067779541 11.63081359863281 12.35331058502197 12.27407360076904 11.97603988647461 12.78237342834473 C 11.59571075439453 13.29477405548096 10.99203109741211 13.60069370269775 10.36119079589844 13.60069370269775 C 9.966110229492188 13.60069370269775 9.579811096191406 13.48084354400635 9.244070053100586 13.25409317016602 L 7.500000476837158 12.07620334625244 L 5.75593090057373 13.25409317016602 C 5.420160293579102 13.48084354400635 5.033880233764648 13.60069370269775 4.638810157775879 13.60069370269775 C 4.007950782775879 13.60069370269775 3.404260635375977 13.2947940826416 3.023950576782227 12.78240394592285 C 2.64668083190918 12.27411365509033 2.536710739135742 11.6308536529541 2.722250938415527 11.01755332946777 L 3.306700706481934 9.085623741149902 L 1.695060729980469 7.873563766479492 C 1.004900932312012 7.354513645172119 0.729100227355957 6.487713813781738 0.9924306869506836 5.665283203125 C 1.25575065612793 4.842853546142578 1.983720779418945 4.297433853149414 2.847010612487793 4.275774002075195 L 4.915960311889648 4.223854064941406 L 5.618300437927246 2.273653984069824 C 5.907600402832031 1.470363616943359 6.646210670471191 0.9513139724731445 7.500000476837158 0.9513139724731445 Z" stroke="none" fill="#3cb6f5"></path></g><g transform="translate(725.5 3881.982)" fill="#fff"><path d="M 10.36120128631592 13.10069370269775 C 10.06623077392578 13.10070323944092 9.776700973510742 13.01046371459961 9.523910522460938 12.83973407745361 L 7.77984094619751 11.66184329986572 C 7.69688081741333 11.60581398010254 7.60011100769043 11.57620334625244 7.500000953674316 11.57620334625244 C 7.399890899658203 11.57620334625244 7.303121089935303 11.60581398010254 7.220160961151123 11.66184329986572 L 5.476090908050537 12.83973407745361 C 5.223310947418213 13.01045322418213 4.933781147003174 13.10069370269775 4.638811111450195 13.10069370269775 C 4.16546106338501 13.10069370269775 3.71186089515686 12.87030410766602 3.4254310131073 12.48439407348633 C 3.143450975418091 12.10448360443115 3.061580896377563 11.62260341644287 3.200830936431885 11.16233348846436 L 3.78528094291687 9.230403900146484 C 3.845790863037109 9.030384063720703 3.774240970611572 8.811614036560059 3.60723090171814 8.686023712158203 L 1.995590925216675 7.473953723907471 C 1.477970957756042 7.084673881530762 1.27112090587616 6.434573650360107 1.468611001968384 5.81774377822876 C 1.666110992431641 5.200923442840576 2.212080955505371 4.791863441467285 2.859550952911377 4.775623798370361 L 4.928511142730713 4.723703861236572 C 5.136250972747803 4.718493461608887 5.315980911254883 4.588793754577637 5.386381149291992 4.393283843994141 L 6.088730812072754 2.443063735961914 C 6.305700778961182 1.840603590011597 6.8596510887146 1.451323628425598 7.500000953674316 1.451323628425598 C 8.140351295471191 1.451323628425598 8.694300651550293 1.840603590011597 8.911271095275879 2.443063735961914 L 9.613600730895996 4.393283843994141 C 9.68402099609375 4.588793754577637 9.863751411437988 4.718493461608887 10.0714807510376 4.723703861236572 L 12.1404504776001 4.775623798370361 C 12.78792095184326 4.791863441467285 13.33389091491699 5.200923442840576 13.53139114379883 5.81774377822876 C 13.72888088226318 6.434573650360107 13.5220308303833 7.084673881530762 13.00441074371338 7.473953723907471 L 11.39277076721191 8.686013221740723 C 11.22576141357422 8.811614036560059 11.15421104431152 9.030384063720703 11.21472072601318 9.230403900146484 L 11.79917049407959 11.16233348846436 C 11.93841075897217 11.62257385253906 11.85654067993164 12.1044340133667 11.57455062866211 12.48435401916504 C 11.28812122344971 12.87027359008789 10.8345308303833 13.10068321228027 10.36120128631592 13.10069370269775 Z" stroke="none"></path><path d="M 7.500003814697266 1.95131778717041 C 7.108948707580566 1.95131778717041 6.717890739440918 2.171709060668945 6.559150695800781 2.612483978271484 L 5.856810569763184 4.56269359588623 C 5.717060089111328 4.950753211975098 5.35338020324707 5.213203430175781 4.94105052947998 5.223544120788574 L 2.872090339660645 5.275464057922363 C 1.924690246582031 5.299233436584473 1.538710594177246 6.504734039306641 2.296120643615723 7.074353694915771 L 3.907760620117188 8.286413192749023 C 4.243160247802734 8.538654327392578 4.385380744934082 8.973493576049805 4.263860702514648 9.37518310546875 L 3.679410934448242 11.30711364746094 C 3.469697952270508 12.00031471252441 4.019006729125977 12.6006908416748 4.638812065124512 12.6006908416748 C 4.824440002441406 12.6006908416748 5.016501426696777 12.54677867889404 5.196250915527344 12.42538356781006 L 6.940320014953613 11.24749374389648 C 7.109405517578125 11.13329887390137 7.304702758789062 11.07620143890381 7.500000476837158 11.07620143890381 C 7.695298194885254 11.07620143890381 7.890595436096191 11.13329887390137 8.059680938720703 11.24749374389648 L 9.803750991821289 12.42538356781006 C 9.983547210693359 12.54681015014648 10.17551612854004 12.6006908416748 10.3611888885498 12.6006908416748 C 10.98093414306641 12.6006908416748 11.53028678894043 12.00026035308838 11.32059097290039 11.30711364746094 L 10.73614025115967 9.37518310546875 C 10.61462020874023 8.973493576049805 10.75684070587158 8.538654327392578 11.09224033355713 8.286413192749023 L 12.70388031005859 7.074353694915771 C 13.46129035949707 6.504734039306641 13.07531070709229 5.299233436584473 12.12791061401367 5.275464057922363 L 10.05895042419434 5.223544120788574 C 9.64661979675293 5.213203430175781 9.282939910888672 4.950753211975098 9.143180847167969 4.56269359588623 L 8.440850257873535 2.612483978271484 C 8.282110214233398 2.171703338623047 7.891058921813965 1.95131778717041 7.500003814697266 1.95131778717041 M 7.500000476837158 0.9513139724731445 C 8.353790283203125 0.9513139724731445 9.092400550842285 1.470363616943359 9.38170051574707 2.273653984069824 L 10.08403015136719 4.22386360168457 L 12.153000831604 4.275774002075195 C 13.01628017425537 4.297433853149414 13.74425029754639 4.842853546142578 14.00757026672363 5.665283203125 C 14.27090072631836 6.487713813781738 13.9951000213623 7.354513645172119 13.30493068695068 7.873563766479492 L 11.69330024719238 9.085623741149902 L 12.27775001525879 11.01755332946777 C 12.46328067779541 11.63081359863281 12.35331058502197 12.27407360076904 11.97603988647461 12.78237342834473 C 11.59571075439453 13.29477405548096 10.99203109741211 13.60069370269775 10.36119079589844 13.60069370269775 C 9.966110229492188 13.60069370269775 9.579811096191406 13.48084354400635 9.244070053100586 13.25409317016602 L 7.500000476837158 12.07620334625244 L 5.75593090057373 13.25409317016602 C 5.420160293579102 13.48084354400635 5.033880233764648 13.60069370269775 4.638810157775879 13.60069370269775 C 4.007950782775879 13.60069370269775 3.404260635375977 13.2947940826416 3.023950576782227 12.78240394592285 C 2.64668083190918 12.27411365509033 2.536710739135742 11.6308536529541 2.722250938415527 11.01755332946777 L 3.306700706481934 9.085623741149902 L 1.695060729980469 7.873563766479492 C 1.004900932312012 7.354513645172119 0.729100227355957 6.487713813781738 0.9924306869506836 5.665283203125 C 1.25575065612793 4.842853546142578 1.983720779418945 4.297433853149414 2.847010612487793 4.275774002075195 L 4.915960311889648 4.223854064941406 L 5.618300437927246 2.273653984069824 C 5.907600402832031 1.470363616943359 6.646210670471191 0.9513139724731445 7.500000476837158 0.9513139724731445 Z" stroke="none" fill="#3cb6f5"></path></g></g></svg>